# xmcd
#
# Track frame offsets:
#	150
#	19054
#	34509
#	48972
#	68004
#	85317
#	106369
#	122862
#	137460
#	151257
#	169817
#	185996
#	200449
#
# Disc length: 2828 seconds
#
# Revision: 2
# Processed by: cddbd v1.5.2PL0 Copyright (c) Steve Scherf et al.
# Submitted via: dBpowerAMP V4.0
#
DISCID=ab0b0a0d
DTITLE=Paixão Sertaneja - Paixão Sertaneja - 4
DYEAR=2009
DGENRE=Country
TTITLE0=Coração Bandido - Leonardo
TTITLE1=Não Faz Mais Isso Comigo - Bruno and Marrone
TTITLE2=Foi Deus - Edson and Hudson
TTITLE3=Coração Está em Pedaços - Cesar Menotti and Fabian
TTITLE4=O Que Vai Ser de Nás - Zeze Di Camargo and Luciano
TTITLE5=Adoro Amar Voce - Daniel
TTITLE6=1000 Corações - Gian and Giovani
TTITLE7=Passe o Tempo que Passar - Rick and Renner
TTITLE8=Fio de Cabelo - Chitaozinho and Xororo
TTITLE9=Desculpe, Mas Eu Vou Chorar - Leandro and Leonardo
TTITLE10=É Melhor Assim - Pedro and Thiago
TTITLE11=To Fazendo Falta - Tonny and Kleber
TTITLE12=Beijinho Doce - Tonico e Tinoco
EXTD=
EXTT0=
EXTT1=
EXTT2=
EXTT3=
EXTT4=
EXTT5=
EXTT6=
EXTT7=
EXTT8=
EXTT9=
EXTT10=
EXTT11=
EXTT12=
PLAYORDER=
